<?xml version="1.0" encoding="UTF-8"?>
<svg id="Layer_2" data-name="Layer 2" xmlns="http://www.w3.org/2000/svg" viewBox="0 0 457.72 142.43">
  <defs>
    <style>
      .cls-1 {
        fill: #f27421;
      }

      .cls-2 {
        fill: #474748;
      }
    </style>
  </defs>
  <g id="Layer_1-2" data-name="Layer 1">
    <g>
      <polygon class="cls-1" points="245.54 83.51 250.72 74.98 261.33 74.98 253.88 83.51 245.54 83.51"/>
      <path class="cls-2" d="M174.68,62.38c-.52,2.38-1.03,4.75-1.54,7.12-.11,.48-.62,.88-1.09,.88h-12.91c-.47,0-.84-.39-.73-.88,1.37-6.43,2.74-12.87,4.11-19.3,1.37-6.43,2.74-12.87,4.11-19.31,.08-.48,.61-.88,1.12-.88h13.24c.31,0,.59,.17,.67,.45,1.73,4.56,3.51,9.12,5.25,13.67,1.75,4.56,3.55,9.11,5.31,13.66,3.66-4.55,7.38-9.1,11.06-13.66,3.67-4.55,7.35-9.11,11.06-13.67,.22-.28,.56-.45,.89-.45h13.24c.5,0,.81,.4,.73,.88-1.37,6.44-2.74,12.87-4.11,19.31-1.37,6.43-2.74,12.87-4.11,19.3-.11,.48-.59,.88-1.12,.88h-12.88c-.48,0-.84-.39-.73-.88,.5-2.37,1.01-4.75,1.51-7.12,.5-2.37,1-4.75,1.54-7.13-2.01,2.45-3.98,4.91-5.95,7.35-1.99,2.46-4,4.89-5.95,7.34-.22,.28-.56,.44-.92,.44h-13.94c-.36,0-.62-.16-.73-.44-.95-2.45-1.87-4.89-2.82-7.34-.95-2.45-1.87-4.9-2.82-7.35-.5,2.38-.99,4.76-1.51,7.13"/>
      <path class="cls-2" d="M236.47,30.02h12.87c.52,0,.82,.4,.74,.88-.95,4.45-1.89,8.9-2.83,13.34-.94,4.45-1.9,8.89-2.83,13.34-.4,1.92,.9,3.49,2.94,3.49h15.21c2.02,0,4-1.57,4.42-3.49,.95-4.44,1.89-8.89,2.83-13.34,.94-4.45,1.93-8.89,2.86-13.34,.1-.48,.6-.88,1.12-.88h12.87c.52,0,.86,.4,.76,.88-1.02,4.84-2.07,9.67-3.11,14.51-1.04,4.83-2.05,9.66-3.08,14.5-1.23,5.77-7.22,10.48-13.3,10.48h-29.93c-6.08,0-10.06-4.71-8.83-10.48,1.03-4.83,2.04-9.67,3.08-14.5,1.04-4.83,2.09-9.67,3.11-14.51,.1-.48,.6-.88,1.12-.88"/>
      <path class="cls-2" d="M327.07,42.32c.81-3.8,1.62-7.61,2.43-11.42,.08-.48,.59-.88,1.09-.88h12.88c.5,0,.81,.4,.73,.88-1.37,6.44-2.75,12.87-4.13,19.31-1.38,6.43-2.74,12.87-4.11,19.3-.11,.48-.59,.88-1.09,.88h-13.36c-.28,0-.53-.11-.64-.32-2.51-3.9-5.05-7.8-7.52-11.69-2.48-3.9-5-7.8-7.49-11.7-.81,3.81-1.62,7.62-2.43,11.42-.81,3.8-1.62,7.61-2.43,11.41-.11,.48-.59,.88-1.09,.88h-12.88c-.5,0-.84-.39-.73-.88,1.37-6.43,2.74-12.87,4.11-19.3,1.37-6.43,2.74-12.87,4.11-19.31,.08-.48,.59-.88,1.12-.88h13.35c.28,0,.53,.11,.64,.33,2.49,3.9,5.01,7.8,7.49,11.7,2.47,3.89,5,7.79,7.52,11.69,.81-3.8,1.62-7.61,2.43-11.41"/>
      <path class="cls-2" d="M352.36,30.02h38.87c3.05,0,5.55,1.2,7.12,3.08,1.59,1.91,2.29,4.52,1.69,7.4-.68,3.24-1.38,6.47-2.07,9.7-.69,3.23-1.37,6.47-2.05,9.7-.6,2.88-2.46,5.51-4.83,7.4-2.37,1.9-5.4,3.07-8.43,3.07h-38.9c-.52,0-.87-.4-.76-.88,1.37-6.44,2.76-12.87,4.12-19.3,1.36-6.43,2.75-12.86,4.12-19.31,.1-.48,.6-.88,1.12-.88m11.48,31.05h13.45c1.99,0,3.98-1.57,4.39-3.5,.55-2.45,1.06-4.92,1.58-7.37,.52-2.45,1.04-4.92,1.58-7.37,.41-1.92-.93-3.5-2.95-3.5h-17.76c-.76,3.63-1.54,7.25-2.32,10.87-.78,3.62-1.53,7.25-2.29,10.87h4.31Z"/>
      <path class="cls-2" d="M408.72,70.38c-3.05,0-5.55-1.18-7.15-3.08-1.61-1.9-2.29-4.52-1.68-7.4,.7-3.23,1.37-6.47,2.07-9.7,.7-3.23,1.37-6.47,2.07-9.7,.62-2.88,2.43-5.51,4.83-7.4,2.4-1.9,5.42-3.08,8.47-3.08h31.35c3.05,0,5.55,1.19,7.12,3.08,1.58,1.9,2.32,4.52,1.71,7.4-.7,3.24-1.41,6.47-2.1,9.7-.68,3.23-1.37,6.47-2.07,9.7-.62,2.88-2.45,5.52-4.81,7.4-2.39,1.91-5.42,3.08-8.46,3.08h-31.35Zm30.43-12.81c.53-2.45,1.03-4.92,1.56-7.37,.53-2.45,1.03-4.92,1.56-7.37,.42-1.92-.92-3.5-2.93-3.5h-16.65c-2.04,0-4.01,1.58-4.41,3.5-.52,2.46-1.07,4.92-1.59,7.37-.52,2.45-1.05,4.91-1.56,7.37-.4,1.92,.92,3.5,2.96,3.5h16.65c1.98,0,4-1.57,4.41-3.5"/>
      <path class="cls-1" d="M160.11,98.81c.46-2.18,.92-4.36,1.4-6.54,.4-1.94,1.63-3.72,3.22-4.99,1.61-1.29,3.68-2.08,5.74-2.08h23.97c.35,0,.55,.27,.5,.59-.37,1.7-.74,3.4-1.09,5.09-.07,.33-.4,.59-.75,.59h-19.02c-1.34,0-2.69,1.06-2.96,2.36-.15,.61-.28,1.22-.4,1.83h19c.33,0,.57,.27,.5,.59-.35,1.7-.72,3.4-1.07,5.09-.07,.33-.42,.59-.75,.59h-19c-.13,.61-.26,1.22-.4,1.83-.28,1.3,.63,2.36,1.97,2.36h19.02c.35,0,.57,.27,.5,.59-.35,1.7-.72,3.4-1.08,5.1-.06,.33-.39,.59-.73,.59h-23.97c-2.04,0-3.77-.8-4.84-2.07-1.07-1.28-1.53-3.05-1.12-4.99,.48-2.18,.94-4.36,1.4-6.54"/>
      <path class="cls-1" d="M196.59,95.57c.69-3.26,1.41-6.52,2.09-9.78,.07-.32,.38-.59,.72-.59h8.68c.34,0,.56,.27,.51,.59-.64,3-1.29,6-1.92,9-.63,2.99-1.26,6-1.9,8.99-.28,1.3,.6,2.36,1.98,2.36h14.67c.34,0,.58,.27,.51,.59-.36,1.7-.73,3.4-1.09,5.1-.07,.33-.41,.59-.75,.59h-19.65c-2.05,0-3.74-.8-4.8-2.07-1.07-1.28-1.53-3.05-1.11-4.99,.7-3.26,1.39-6.52,2.07-9.78"/>
      <path class="cls-1" d="M227.43,98.81c.46-2.18,.92-4.36,1.4-6.54,.4-1.94,1.63-3.72,3.22-4.99,1.61-1.29,3.68-2.08,5.74-2.08h23.97c.35,0,.55,.27,.5,.59-.37,1.7-.74,3.4-1.09,5.09-.07,.33-.4,.59-.75,.59h-19.02c-1.34,0-2.69,1.06-2.96,2.36-.15,.61-.28,1.22-.4,1.83h19c.33,0,.57,.27,.5,.59-.35,1.7-.72,3.4-1.07,5.09-.07,.33-.42,.59-.75,.59h-19c-.13,.61-.26,1.22-.4,1.83-.28,1.3,.63,2.36,1.97,2.36h19.02c.35,0,.57,.27,.5,.59-.35,1.7-.72,3.4-1.08,5.1-.06,.33-.39,.59-.73,.59h-23.97c-2.04,0-3.77-.8-4.84-2.07-1.07-1.28-1.53-3.05-1.12-4.99,.48-2.18,.94-4.36,1.4-6.54"/>
      <path class="cls-1" d="M267.85,87.27c1.6-1.28,3.66-2.08,5.7-2.08h22.97c.33,0,.56,.27,.5,.59-.36,1.7-.73,3.4-1.09,5.09-.07,.33-.4,.59-.75,.59h-17.99c-1.38,0-2.72,1.06-3,2.36-.35,1.66-.71,3.32-1.07,4.97-.36,1.65-.7,3.32-1.05,4.97-.27,1.3,.63,2.36,2.01,2.36h17.99c.33,0,.56,.27,.5,.59-.35,1.7-.73,3.39-1.09,5.1-.07,.32-.4,.59-.75,.59h-22.96c-2.06,0-3.77-.8-4.84-2.07-1.07-1.28-1.51-3.05-1.1-4.99,.46-2.18,.91-4.36,1.38-6.54,.47-2.18,.94-4.36,1.4-6.54,.41-1.94,1.64-3.71,3.24-4.99"/>
      <path class="cls-1" d="M299.97,91.48c-.33,0-.55-.26-.48-.59,.35-1.7,.72-3.39,1.08-5.09,.06-.33,.4-.6,.73-.6h31.34c.33,0,.55,.27,.5,.6-.37,1.7-.73,3.4-1.08,5.09-.07,.33-.4,.59-.75,.59h-10.7c-.74,3.39-1.44,6.78-2.17,10.17-.73,3.39-1.45,6.78-2.17,10.17-.07,.32-.42,.59-.75,.59h-8.68c-.35,0-.57-.27-.5-.59,.72-3.39,1.43-6.78,2.15-10.17,.72-3.39,1.45-6.78,2.17-10.17h-10.7Z"/>
      <path class="cls-1" d="M344.44,101.65c-.72,3.39-1.43,6.78-2.15,10.17-.07,.33-.42,.59-.75,.59h-8.67c-.35,0-.57-.27-.5-.59,.92-4.34,1.84-8.68,2.76-13.01,.92-4.34,1.84-8.68,2.78-13.02,.05-.33,.39-.6,.75-.6,8.11,0,16.23,0,24.35,0,4.08,0,6.76,3.18,5.94,7.06-.37,1.68-.72,3.36-1.07,5.04-.68,3.19-3.56,6.01-6.98,6.83,1.29,2.45,2.57,4.9,3.86,7.35,.09,.19,.06,.41-.09,.62-.17,.2-.39,.32-.62,.32h-9.23c-.22,0-.4-.09-.46-.25-1.18-2.19-2.34-4.38-3.47-6.57-1.14-2.19-2.3-4.38-3.44-6.57-.11-.19-.07-.41,.07-.61,.17-.2,.39-.32,.62-.32h7.17c.7,0,1.43-.28,1.98-.78,.53-.43,.88-.99,1.01-1.58,.13-.63,.26-1.26,.4-1.9,.28-1.3-.63-2.36-1.98-2.36h-10.11c-.72,3.39-1.45,6.78-2.17,10.17"/>
      <path class="cls-1" d="M375.23,85.2h8.66c.35,0,.59,.27,.52,.59-.91,4.34-1.85,8.68-2.78,13.02-.93,4.34-1.87,8.67-2.78,13.02-.07,.32-.41,.59-.74,.59h-8.68c-.33,0-.57-.26-.52-.59,.93-4.34,1.85-8.68,2.78-13.02,.93-4.34,1.86-8.67,2.78-13.02,.07-.33,.41-.59,.76-.59"/>
      <path class="cls-1" d="M389.98,87.27c1.6-1.28,3.66-2.08,5.7-2.08h22.97c.33,0,.56,.27,.5,.59-.35,1.7-.73,3.4-1.09,5.09-.07,.33-.4,.59-.75,.59h-17.99c-1.38,0-2.72,1.06-3,2.36-.35,1.66-.71,3.32-1.07,4.97-.36,1.65-.7,3.32-1.05,4.97-.27,1.3,.63,2.36,2.01,2.36h17.99c.33,0,.56,.27,.5,.59-.35,1.7-.73,3.39-1.09,5.1-.07,.32-.4,.59-.75,.59h-22.96c-2.06,0-3.77-.8-4.84-2.07-1.07-1.28-1.51-3.05-1.1-4.99,.46-2.18,.91-4.36,1.38-6.54,.47-2.18,.94-4.36,1.4-6.54,.41-1.94,1.64-3.71,3.24-4.99"/>
      <path class="cls-1" d="M424.68,112.41c-2.05,0-3.74-.8-4.82-2.07-1.09-1.28-1.55-3.05-1.13-4.99,.47-2.18,.92-4.36,1.39-6.54,.47-2.18,.93-4.36,1.39-6.54,.42-1.94,1.64-3.71,3.26-4.99,1.62-1.28,3.65-2.08,5.71-2.08h21.14c2.05,0,3.74,.8,4.8,2.08,1.07,1.28,1.57,3.05,1.15,4.99-.47,2.18-.95,4.36-1.41,6.54-.46,2.18-.93,4.36-1.39,6.54-.42,1.94-1.65,3.72-3.24,4.99-1.61,1.29-3.65,2.07-5.71,2.07h-21.14Zm20.52-8.64c.36-1.65,.7-3.32,1.06-4.97s.7-3.32,1.06-4.97c.28-1.3-.62-2.36-1.98-2.36h-11.23c-1.37,0-2.7,1.06-2.98,2.36-.35,1.66-.72,3.32-1.07,4.97-.35,1.65-.71,3.31-1.06,4.97-.27,1.29,.62,2.36,2,2.36h11.23c1.34,0,2.7-1.06,2.98-2.36"/>
    </g>
    <g>
      <path class="cls-2" d="M103.08,7.53l-2.17,6.87-17.3,54.63-.93,2.97h-13.34c.31-1.04,.62-2.02,.91-2.97,1.97-6.38,3.26-10.59,3.34-11.06-1.95,2.39-3.88,4.81-5.8,7.18-1.06,1.31-2.13,2.59-3.15,3.88-.31,.35-.6,.71-.86,1.06-.62,.75-1.24,1.51-1.84,2.26-.16,.2-.4,.35-.64,.4-.09,.02-.18,.02-.27,.02h-13.65c-.35,0-.6-.16-.71-.42-.93-2.39-1.84-4.79-2.77-7.2-.93-2.39-1.84-4.79-2.75-7.18-.51,2.33-.98,4.65-1.48,6.98-.51,2.33-1.02,4.65-1.51,6.98-.11,.47-.6,.84-1.06,.84h-12.65c-.47,0-.82-.38-.71-.84,1.35-6.31,6.71-31.53,8.04-37.82,.09-.47,.6-.86,1.11-.86h12.96c.31,0,.58,.16,.66,.44,1.68,4.45,8.62,22.31,10.35,26.76,.95-1.2,1.93-2.41,2.9-3.61L94.46,11.48l4.48-5.87c1.42,.6,2.79,1.24,4.14,1.93Z"/>
      <path class="cls-1" d="M133.61,105.45c-1.7,3.17-3.68,6.18-5.89,9.04H56.71l11.34-35.85,.93-2.97h47.7c.07,.13,.09,.24,.09,.35l-5.58,5.92-1.91,2.41h-30.53l-1.9,6.03h22.86l-1.99,2.55-2.99,3.83-1.4,1.75v.02l-.69,.89h-18.65l-1.91,6.03h61.52Z"/>
      <path class="cls-1" d="M109,10.86l-2.24,7.02c17.21,11.5,28.53,31.1,28.53,53.35,0,9.88-2.24,19.23-6.23,27.58-1.11,2.3-2.33,4.52-3.7,6.65-2.02,3.23-4.34,6.25-6.91,9.04h9.26c2.22-2.86,4.19-5.87,5.89-9.04,1.22-2.15,2.28-4.36,3.26-6.65,3.59-8.49,5.56-17.81,5.56-27.58,0-25.41-13.36-47.74-33.43-60.37Z"/>
      <path class="cls-2" d="M111.39,121.14c-10.99,8.86-24.95,14.16-40.17,14.16-35.4,0-64.09-28.71-64.09-64.07S35.82,7.11,71.23,7.11c5.72,0,11.28,.75,16.55,2.17,2.28,.6,4.52,1.33,6.69,2.19,2.22,.84,4.37,1.82,6.45,2.92l2.17-6.87c-1.35-.69-2.73-1.33-4.14-1.93-2.13-.89-4.32-1.71-6.54-2.39-6.69-2.08-13.8-3.21-21.18-3.21C31.95,0,0,31.95,0,71.23s31.95,71.2,71.23,71.2c19.85,0,37.79-8.15,50.73-21.29h-10.57Z"/>
    </g>
  </g>
</svg>