<?xml version="1.0" encoding="UTF-8"?>
<svg id="Layer_2" data-name="Layer 2" xmlns="http://www.w3.org/2000/svg" viewBox="0 0 142.43 142.43">
  <defs>
    <style>
      .cls-1 {
        fill: #f27421;
      }

      .cls-2 {
        fill: #474748;
      }
    </style>
  </defs>
  <g id="Layer_1-2" data-name="Layer 1">
    <g>
      <path class="cls-2" d="M103.08,7.53l-2.17,6.87-17.3,54.63-.93,2.97h-13.34c.31-1.04,.62-2.02,.91-2.97,1.97-6.38,3.26-10.59,3.34-11.06-1.95,2.39-3.88,4.81-5.8,7.18-1.06,1.31-2.13,2.59-3.15,3.88-.31,.35-.6,.71-.86,1.06-.62,.75-1.24,1.51-1.84,2.26-.16,.2-.4,.35-.64,.4-.09,.02-.18,.02-.27,.02h-13.65c-.35,0-.6-.16-.71-.42-.93-2.39-1.84-4.79-2.77-7.2-.93-2.39-1.84-4.79-2.75-7.18-.51,2.33-.98,4.65-1.48,6.98-.51,2.33-1.02,4.65-1.51,6.98-.11,.47-.6,.84-1.06,.84h-12.65c-.47,0-.82-.38-.71-.84,1.35-6.31,6.71-31.53,8.04-37.82,.09-.47,.6-.86,1.11-.86h12.96c.31,0,.58,.16,.66,.44,1.68,4.45,8.62,22.31,10.35,26.76,.95-1.2,1.93-2.41,2.9-3.61L94.46,11.48l4.48-5.87c1.42,.6,2.79,1.24,4.14,1.93Z"/>
      <path class="cls-1" d="M133.61,105.45c-1.7,3.17-3.68,6.18-5.89,9.04H56.71l11.34-35.85,.93-2.97h47.7c.07,.13,.09,.24,.09,.35l-5.58,5.92-1.91,2.41h-30.53l-1.9,6.03h22.86l-1.99,2.55-2.99,3.83-1.4,1.75v.02l-.69,.89h-18.65l-1.91,6.03h61.52Z"/>
      <path class="cls-1" d="M109,10.86l-2.24,7.02c17.21,11.5,28.53,31.1,28.53,53.35,0,9.88-2.24,19.23-6.23,27.58-1.11,2.3-2.33,4.52-3.7,6.65-2.02,3.23-4.34,6.25-6.91,9.04h9.26c2.22-2.86,4.19-5.87,5.89-9.04,1.22-2.15,2.28-4.36,3.26-6.65,3.59-8.49,5.56-17.81,5.56-27.58,0-25.41-13.36-47.74-33.43-60.37Z"/>
      <path class="cls-2" d="M111.39,121.14c-10.99,8.86-24.95,14.16-40.17,14.16-35.4,0-64.09-28.71-64.09-64.07S35.82,7.11,71.23,7.11c5.72,0,11.28,.75,16.55,2.17,2.28,.6,4.52,1.33,6.69,2.19,2.22,.84,4.37,1.82,6.45,2.92l2.17-6.87c-1.35-.69-2.73-1.33-4.14-1.93-2.13-.89-4.32-1.71-6.54-2.39-6.69-2.08-13.8-3.21-21.18-3.21C31.95,0,0,31.95,0,71.23s31.95,71.2,71.23,71.2c19.85,0,37.79-8.15,50.73-21.29h-10.57Z"/>
    </g>
  </g>
</svg>