<?xml version="1.0" encoding="utf-8"?>
<!-- Generator: Adobe Illustrator 26.5.0, SVG Export Plug-In . SVG Version: 6.00 Build 0)  -->
<svg version="1.1" id="Layer_1" xmlns="http://www.w3.org/2000/svg" xmlns:xlink="http://www.w3.org/1999/xlink" x="0px" y="0px"
	 viewBox="0 0 500 600" style="enable-background:new 0 0 500 600;" xml:space="preserve">
<style type="text/css">
	.st0{display:none;fill:#1D1D1B;}
	.st1{fill:#F27421;}
	.st2{fill:#474748;}
</style>
<rect x="-3.3" y="0.5" class="st0" width="506" height="600"/>
<g>
	<g>
		<polygon class="st1" points="261.8,309.5 265.6,303.3 273.3,303.3 267.9,309.5 		"/>
		<path class="st2" d="M210.3,294.1c-0.4,1.7-0.8,3.5-1.1,5.2c-0.1,0.4-0.4,0.6-0.8,0.6H199c-0.3,0-0.6-0.3-0.5-0.6
			c1-4.7,2-9.4,3-14c1-4.7,2-9.4,3-14.1c0.1-0.4,0.4-0.6,0.8-0.6h9.6c0.2,0,0.4,0.1,0.5,0.3c1.3,3.3,2.6,6.6,3.8,9.9
			c1.3,3.3,2.6,6.6,3.9,9.9c2.7-3.3,5.4-6.6,8.1-9.9c2.7-3.3,5.3-6.6,8.1-9.9c0.2-0.2,0.4-0.3,0.7-0.3h9.6c0.4,0,0.6,0.3,0.5,0.6
			c-1,4.7-2,9.4-3,14.1c-1,4.7-2,9.4-3,14c-0.1,0.4-0.4,0.6-0.8,0.6h-9.4c-0.3,0-0.6-0.3-0.5-0.6c0.4-1.7,0.7-3.5,1.1-5.2
			c0.4-1.7,0.7-3.5,1.1-5.2c-1.5,1.8-2.9,3.6-4.3,5.3c-1.5,1.8-2.9,3.6-4.3,5.3c-0.2,0.2-0.4,0.3-0.7,0.3H216
			c-0.3,0-0.4-0.1-0.5-0.3c-0.7-1.8-1.4-3.6-2.1-5.3c-0.7-1.8-1.4-3.6-2.1-5.3C211,290.6,210.6,292.4,210.3,294.1"/>
		<path class="st2" d="M255.2,270.5h9.4c0.4,0,0.6,0.3,0.5,0.6c-0.7,3.2-1.4,6.5-2.1,9.7c-0.7,3.2-1.4,6.5-2.1,9.7
			c-0.3,1.4,0.7,2.5,2.1,2.5h2.3h1h7.7c1.5,0,2.9-1.1,3.2-2.5c0.7-3.2,1.4-6.5,2.1-9.7c0.7-3.2,1.4-6.5,2.1-9.7
			c0.1-0.4,0.4-0.6,0.8-0.6h9.4c0.4,0,0.6,0.3,0.6,0.6c-0.7,3.5-1.5,7-2.3,10.6c-0.8,3.5-1.5,7-2.2,10.6c-0.9,4.2-5.3,7.6-9.7,7.6
			H265h-1h-7.7c-4.4,0-7.3-3.4-6.4-7.6c0.8-3.5,1.5-7,2.2-10.6c0.8-3.5,1.5-7,2.3-10.6C254.5,270.8,254.9,270.5,255.2,270.5"/>
		<path class="st2" d="M321.2,279.5c0.6-2.8,1.2-5.5,1.8-8.3c0.1-0.4,0.4-0.6,0.8-0.6h9.4c0.4,0,0.6,0.3,0.5,0.6
			c-1,4.7-2,9.4-3,14.1c-1,4.7-2,9.4-3,14c-0.1,0.4-0.4,0.6-0.8,0.6h-9.7c-0.2,0-0.4-0.1-0.5-0.2c-1.8-2.8-3.7-5.7-5.5-8.5
			c-1.8-2.8-3.6-5.7-5.4-8.5c-0.6,2.8-1.2,5.5-1.8,8.3c-0.6,2.8-1.2,5.5-1.8,8.3c-0.1,0.4-0.4,0.6-0.8,0.6H292
			c-0.4,0-0.6-0.3-0.5-0.6c1-4.7,2-9.4,3-14c1-4.7,2-9.4,3-14.1c0.1-0.4,0.4-0.6,0.8-0.6h9.7c0.2,0,0.4,0.1,0.5,0.2
			c1.8,2.8,3.6,5.7,5.4,8.5c1.8,2.8,3.6,5.7,5.5,8.5C320,285,320.6,282.2,321.2,279.5"/>
		<path class="st2" d="M339.6,270.5h13.2h0.9h14.3c2.2,0,4,0.9,5.2,2.2c1.2,1.4,1.7,3.3,1.2,5.4c-0.5,2.4-1,4.7-1.5,7.1
			c-0.5,2.4-1,4.7-1.5,7.1c-0.4,2.1-1.8,4-3.5,5.4c-1.7,1.4-3.9,2.2-6.1,2.2h-14.3h-0.9h-13.2c-0.4,0-0.6-0.3-0.6-0.6
			c1-4.7,2-9.4,3-14c1-4.7,2-9.4,3-14.1C338.9,270.8,339.2,270.5,339.6,270.5 M348,293.1h0.8h9c1.4,0,2.9-1.1,3.2-2.5
			c0.4-1.8,0.8-3.6,1.2-5.4c0.4-1.8,0.8-3.6,1.2-5.4c0.3-1.4-0.7-2.5-2.1-2.5h-8.9h-0.9h-3.1c-0.6,2.6-1.1,5.3-1.7,7.9
			c-0.6,2.6-1.1,5.3-1.7,7.9H348z"/>
		<path class="st2" d="M380.6,299.9c-2.2,0-4-0.9-5.2-2.2c-1.2-1.4-1.7-3.3-1.2-5.4c0.5-2.4,1-4.7,1.5-7.1c0.5-2.4,1-4.7,1.5-7.1
			c0.4-2.1,1.8-4,3.5-5.4c1.7-1.4,3.9-2.2,6.2-2.2h11.4h11.4c2.2,0,4,0.9,5.2,2.2c1.2,1.4,1.7,3.3,1.2,5.4c-0.5,2.4-1,4.7-1.5,7.1
			c-0.5,2.4-1,4.7-1.5,7.1c-0.5,2.1-1.8,4-3.5,5.4c-1.7,1.4-3.9,2.2-6.2,2.2H392H380.6z M402.8,290.6c0.4-1.8,0.8-3.6,1.1-5.4
			c0.4-1.8,0.8-3.6,1.1-5.4c0.3-1.4-0.7-2.5-2.1-2.5h-6.1h-6c-1.5,0-2.9,1.1-3.2,2.5c-0.4,1.8-0.8,3.6-1.2,5.4
			c-0.4,1.8-0.8,3.6-1.1,5.4c-0.3,1.4,0.7,2.5,2.2,2.5h6h6.1C401,293.1,402.5,292,402.8,290.6"/>
		<path class="st1" d="M199.7,320.6c0.3-1.6,0.7-3.2,1-4.8c0.3-1.4,1.2-2.7,2.3-3.6c1.2-0.9,2.7-1.5,4.2-1.5h7.4h10
			c0.3,0,0.4,0.2,0.4,0.4c-0.3,1.2-0.5,2.5-0.8,3.7c-0.1,0.2-0.3,0.4-0.5,0.4h-10h-3.8c-1,0-2,0.8-2.2,1.7c-0.1,0.4-0.2,0.9-0.3,1.3
			h5.6h8.2c0.2,0,0.4,0.2,0.4,0.4c-0.3,1.2-0.5,2.5-0.8,3.7c-0.1,0.2-0.3,0.4-0.5,0.4H212h-5.6c-0.1,0.4-0.2,0.9-0.3,1.3
			c-0.2,0.9,0.5,1.7,1.4,1.7h3.8h10c0.3,0,0.4,0.2,0.4,0.4c-0.3,1.2-0.5,2.5-0.8,3.7c0,0.2-0.3,0.4-0.5,0.4h-10H203
			c-1.5,0-2.7-0.6-3.5-1.5c-0.8-0.9-1.1-2.2-0.8-3.6C199,323.8,199.3,322.2,199.7,320.6"/>
		<path class="st1" d="M226.2,318.2c0.5-2.4,1-4.7,1.5-7.1c0-0.2,0.3-0.4,0.5-0.4h6.3c0.2,0,0.4,0.2,0.4,0.4
			c-0.5,2.2-0.9,4.4-1.4,6.5c-0.5,2.2-0.9,4.4-1.4,6.5c-0.2,0.9,0.4,1.7,1.4,1.7h10.7c0.2,0,0.4,0.2,0.4,0.4
			c-0.3,1.2-0.5,2.5-0.8,3.7c-0.1,0.2-0.3,0.4-0.5,0.4H229c-1.5,0-2.7-0.6-3.5-1.5c-0.8-0.9-1.1-2.2-0.8-3.6
			C225.2,323,225.7,320.6,226.2,318.2"/>
		<path class="st1" d="M248.7,320.6c0.3-1.6,0.7-3.2,1-4.8c0.3-1.4,1.2-2.7,2.3-3.6c1.2-0.9,2.7-1.5,4.2-1.5h7.4h10
			c0.3,0,0.4,0.2,0.4,0.4c-0.3,1.2-0.5,2.5-0.8,3.7c-0.1,0.2-0.3,0.4-0.5,0.4h-10h-3.8c-1,0-2,0.8-2.2,1.7c-0.1,0.4-0.2,0.9-0.3,1.3
			h5.6h8.2c0.2,0,0.4,0.2,0.4,0.4c-0.3,1.2-0.5,2.5-0.8,3.7c-0.1,0.2-0.3,0.4-0.5,0.4H261h-5.6c-0.1,0.4-0.2,0.9-0.3,1.3
			c-0.2,0.9,0.5,1.7,1.4,1.7h3.8h10c0.3,0,0.4,0.2,0.4,0.4c-0.3,1.2-0.5,2.5-0.8,3.7c0,0.2-0.3,0.4-0.5,0.4h-10H252
			c-1.5,0-2.7-0.6-3.5-1.5c-0.8-0.9-1.1-2.2-0.8-3.6C248,323.8,248.3,322.2,248.7,320.6"/>
		<path class="st1" d="M278.1,312.2c1.2-0.9,2.7-1.5,4.2-1.5H299c0.2,0,0.4,0.2,0.4,0.4c-0.3,1.2-0.5,2.5-0.8,3.7
			c0,0.2-0.3,0.4-0.5,0.4h-13.1c-1,0-2,0.8-2.2,1.7c-0.3,1.2-0.5,2.4-0.8,3.6c-0.3,1.2-0.5,2.4-0.8,3.6c-0.2,0.9,0.5,1.7,1.5,1.7
			h13.1c0.2,0,0.4,0.2,0.4,0.4c-0.3,1.2-0.5,2.5-0.8,3.7c0,0.2-0.3,0.4-0.5,0.4H278c-1.5,0-2.7-0.6-3.5-1.5
			c-0.8-0.9-1.1-2.2-0.8-3.6c0.3-1.6,0.7-3.2,1-4.8c0.3-1.6,0.7-3.2,1-4.8C276,314.4,276.9,313.1,278.1,312.2"/>
		<path class="st1" d="M301.5,315.3c-0.2,0-0.4-0.2-0.3-0.4c0.3-1.2,0.5-2.5,0.8-3.7c0-0.2,0.3-0.4,0.5-0.4h22.8
			c0.2,0,0.4,0.2,0.4,0.4c-0.3,1.2-0.5,2.5-0.8,3.7c-0.1,0.2-0.3,0.4-0.5,0.4h-7.8c-0.5,2.5-1.1,4.9-1.6,7.4
			c-0.5,2.5-1.1,4.9-1.6,7.4c-0.1,0.2-0.3,0.4-0.5,0.4h-6.3c-0.3,0-0.4-0.2-0.4-0.4c0.5-2.5,1-4.9,1.6-7.4s1.1-4.9,1.6-7.4H301.5z"
			/>
		<path class="st1" d="M333.8,322.7c-0.5,2.5-1,4.9-1.6,7.4c-0.1,0.2-0.3,0.4-0.5,0.4h-6.3c-0.3,0-0.4-0.2-0.4-0.4
			c0.7-3.2,1.3-6.3,2-9.5c0.7-3.2,1.3-6.3,2-9.5c0-0.2,0.3-0.4,0.5-0.4c5.9,0,11.8,0,17.7,0c3,0,4.9,2.3,4.3,5.1
			c-0.3,1.2-0.5,2.4-0.8,3.7c-0.5,2.3-2.6,4.4-5.1,5c0.9,1.8,1.9,3.6,2.8,5.3c0.1,0.1,0,0.3-0.1,0.4c-0.1,0.1-0.3,0.2-0.5,0.2h-6.7
			c-0.2,0-0.3-0.1-0.3-0.2c-0.9-1.6-1.7-3.2-2.5-4.8c-0.8-1.6-1.7-3.2-2.5-4.8c-0.1-0.1-0.1-0.3,0.1-0.4c0.1-0.1,0.3-0.2,0.5-0.2
			h5.2c0.5,0,1-0.2,1.4-0.6c0.4-0.3,0.6-0.7,0.7-1.1c0.1-0.5,0.2-0.9,0.3-1.4c0.2-0.9-0.5-1.7-1.4-1.7h-7.4
			C334.9,317.7,334.3,320.2,333.8,322.7"/>
		<path class="st1" d="M356.2,310.7h6.3c0.3,0,0.4,0.2,0.4,0.4c-0.7,3.2-1.3,6.3-2,9.5c-0.7,3.2-1.4,6.3-2,9.5
			c0,0.2-0.3,0.4-0.5,0.4H352c-0.2,0-0.4-0.2-0.4-0.4c0.7-3.2,1.3-6.3,2-9.5c0.7-3.2,1.4-6.3,2-9.5
			C355.7,310.9,356,310.7,356.2,310.7"/>
		<path class="st1" d="M367,312.2c1.2-0.9,2.7-1.5,4.2-1.5h16.7c0.2,0,0.4,0.2,0.4,0.4c-0.3,1.2-0.5,2.5-0.8,3.7
			c0,0.2-0.3,0.4-0.5,0.4h-13.1c-1,0-2,0.8-2.2,1.7c-0.3,1.2-0.5,2.4-0.8,3.6c-0.3,1.2-0.5,2.4-0.8,3.6c-0.2,0.9,0.5,1.7,1.5,1.7
			h13.1c0.2,0,0.4,0.2,0.4,0.4c-0.3,1.2-0.5,2.5-0.8,3.7c0,0.2-0.3,0.4-0.5,0.4h-16.7c-1.5,0-2.7-0.6-3.5-1.5
			c-0.8-0.9-1.1-2.2-0.8-3.6c0.3-1.6,0.7-3.2,1-4.8c0.3-1.6,0.7-3.2,1-4.8C364.9,314.4,365.8,313.1,367,312.2"/>
		<path class="st1" d="M392.2,330.5c-1.5,0-2.7-0.6-3.5-1.5c-0.8-0.9-1.1-2.2-0.8-3.6c0.3-1.6,0.7-3.2,1-4.8c0.3-1.6,0.7-3.2,1-4.8
			c0.3-1.4,1.2-2.7,2.4-3.6c1.2-0.9,2.7-1.5,4.2-1.5h7.7h7.7c1.5,0,2.7,0.6,3.5,1.5c0.8,0.9,1.1,2.2,0.8,3.6c-0.3,1.6-0.7,3.2-1,4.8
			c-0.3,1.6-0.7,3.2-1,4.8c-0.3,1.4-1.2,2.7-2.4,3.6c-1.2,0.9-2.7,1.5-4.2,1.5h-7.7H392.2z M407.2,324.2c0.3-1.2,0.5-2.4,0.8-3.6
			c0.3-1.2,0.5-2.4,0.8-3.6c0.2-0.9-0.5-1.7-1.4-1.7h-4.1h-4c-1,0-2,0.8-2.2,1.7c-0.3,1.2-0.5,2.4-0.8,3.6c-0.3,1.2-0.5,2.4-0.8,3.6
			c-0.2,0.9,0.5,1.7,1.5,1.7h4h4.1C406,325.9,407,325.2,407.2,324.2"/>
	</g>
	<g>
		<path class="st2" d="M158.2,254.2l-1.6,5L144,298.9l-0.7,2.2h-9.7c0.2-0.8,0.5-1.5,0.7-2.2c1.4-4.6,2.4-7.7,2.4-8
			c-1.4,1.7-2.8,3.5-4.2,5.2c-0.8,1-1.5,1.9-2.3,2.8c-0.2,0.3-0.4,0.5-0.6,0.8c-0.5,0.5-0.9,1.1-1.3,1.6c-0.1,0.1-0.3,0.3-0.5,0.3
			c-0.1,0-0.1,0-0.2,0h-9.9c-0.3,0-0.4-0.1-0.5-0.3c-0.7-1.7-1.3-3.5-2-5.2c-0.7-1.7-1.3-3.5-2-5.2c-0.4,1.7-0.7,3.4-1.1,5.1
			c-0.4,1.7-0.7,3.4-1.1,5.1c-0.1,0.3-0.4,0.6-0.8,0.6h-9.2c-0.3,0-0.6-0.3-0.5-0.6c1-4.6,4.9-22.9,5.9-27.5
			c0.1-0.3,0.4-0.6,0.8-0.6h9.4c0.2,0,0.4,0.1,0.5,0.3c1.2,3.2,6.3,16.2,7.5,19.5c0.7-0.9,1.4-1.8,2.1-2.6l25.3-33l3.3-4.3
			C156.2,253.2,157.2,253.7,158.2,254.2z"/>
		<path class="st1" d="M180.4,325.4c-1.2,2.3-2.7,4.5-4.3,6.6h-51.7l8.3-26.1l0.7-2.2h34.7c0,0.1,0.1,0.2,0.1,0.3l-4.1,4.3l-1.4,1.8
			h-22.2l-1.4,4.4h16.6l-1.5,1.9l-2.2,2.8l-1,1.3v0l-0.5,0.6H137l-1.4,4.4H180.4z"/>
		<path class="st1" d="M162.5,256.6l-1.6,5.1c12.5,8.4,20.8,22.6,20.8,38.8c0,7.2-1.6,14-4.5,20.1c-0.8,1.7-1.7,3.3-2.7,4.8
			c-1.5,2.4-3.2,4.5-5,6.6h6.7c1.6-2.1,3-4.3,4.3-6.6c0.9-1.6,1.7-3.2,2.4-4.8c2.6-6.2,4-13,4-20.1
			C186.8,282,177.1,265.8,162.5,256.6z"/>
		<path class="st2" d="M164.2,336.9c-8,6.5-18.2,10.3-29.2,10.3c-25.8,0-46.7-20.9-46.7-46.6c0-25.8,20.9-46.7,46.7-46.7
			c4.2,0,8.2,0.5,12,1.6c1.7,0.4,3.3,1,4.9,1.6c1.6,0.6,3.2,1.3,4.7,2.1l1.6-5c-1-0.5-2-1-3-1.4c-1.5-0.6-3.1-1.2-4.8-1.7
			c-4.9-1.5-10-2.3-15.4-2.3c-28.6,0-51.8,23.3-51.8,51.8c0,28.6,23.3,51.8,51.8,51.8c14.4,0,27.5-5.9,36.9-15.5H164.2z"/>
	</g>
</g>
</svg>
