<?xml version="1.0" encoding="UTF-8"?>
<svg id="Layer_1" data-name="Layer 1" xmlns="http://www.w3.org/2000/svg" viewBox="0 0 500 600">
  <defs>
    <style>
      .cls-1 {
        fill: gray;
      }

      .cls-2 {
        fill: #e74e0f;
      }

      .cls-3 {
        fill: #1d1d1b;
      }
    </style>
  </defs>
  <g>
    <rect class="cls-3" x="119.14" y="325.09" width="8.77" height="2.38"/>
    <rect class="cls-3" x="121.18" y="327.13" width="4.81" height="2.38"/>
  </g>
  <rect class="cls-3" x="129.83" y="328.9" width="304.45" height=".96"/>
  <polygon points="129.17 255.35 127.14 255.35 127.14 255.69 122.33 255.69 122.33 255.35 120.41 255.35 120.41 257.72 129.17 257.72 129.17 255.35"/>
  <rect x="122.33" y="253.31" width="4.81" height="2.04"/>
  <rect x="122.33" y="255.35" width="4.81" height=".34"/>
  <g>
    <path class="cls-1" d="M110.15,312.26c-.63-.74-1.24-1.53-1.81-2.38-2.98,.17-5.9,.29-8.5,.29-.94,0-1.83-.01-2.65-.04-.28-.01-.56-.02-.84-.03,6.06,8.44,16.12,14.04,27.44,14.04s13.57-2.65,16.31-3.36c-.52,.03-8.02,2.58-15.67,.8-2.45-.57-8.68-3.08-13.67-8.6,3.79-1.01,9.91-2,19.14-1.85,7.04,.12,12.98,1.71,17.61,3.6,.19-.22,.38-.44,.57-.66-4.75-1.98-10.88-3.65-18.16-3.77-9.68-.17-15.96,.89-19.78,1.96Z"/>
    <path class="cls-1" d="M156.47,294.52h-52.71c0-.24-.01-.47-.01-.71,.03-3.49,.63-6.85,1.69-9.95,3.15,1.23,10.05,3.19,21.97,3.19,.61,0,1.24,0,1.87-.02,11.4-.19,20.49-3.3,25.75-5.64,.26,.59,.5,1.19,.73,1.8,.01,0,.03,0,.04-.01-.86-3.1-2.19-6.01-3.9-8.66-.4-.05-.81-.09-1.22-.14,1.58,1.88,2.94,3.98,4.02,6.25-5.18,2.3-14.15,5.38-25.43,5.57-12.86,.21-20.3-1.9-23.53-3.14,.83-2.22,1.9-4.3,3.19-6.21,3.4,1.1,9.4,2.35,19.06,2.35,.63,0,1.29,0,1.95-.02,8.55-.14,15.51-2.42,20.52-4.82-.53-.05-1.07-.11-1.63-.16-4.8,2.13-11.19,4.03-18.9,4.16-10.42,.18-16.89-1.11-20.49-2.23,.71-.99,1.48-1.94,2.31-2.83-1.44,.02-2.29,.04-2.31,.04h-.02c-.36,0-.66-.28-.69-.64-.03-.37,.24-.69,.61-.73,.06,0,1.66-.19,4.23-.46,4.65-4.15,10.61-6.65,17.14-6.65,5.41,0,10.44,1.71,14.66,4.66,.52,0,1.02,.02,1.49,.03,.39,.01,.76,.03,1.14,.04-6.08-6.29-14.73-10.23-24.34-10.23-18.4,0-33.31,14.42-33.31,32.22,0,4.91,1.15,9.58,3.2,13.78,2.96,.34,6.51,.61,10.63,.8,.66,.03,1.33,.06,2.01,.08,.04,0,.08,0,.12,0,0-.01-.01-.03-.02-.04,3.49-1.25,10.8-3.13,22.98-2.94,9.74,.16,17.77,2.48,23.11,4.6,.13-.24,.27-.49,.39-.73-5.42-2.15-13.58-4.53-23.49-4.69-12.44-.21-19.79,1.68-23.33,2.98-1.22-2.89-2.03-6.24-2.17-10.09h52.62c.03-.27,.05-.55,.08-.82Z"/>
  </g>
  <g>
    <polygon class="cls-2" points="145.24 335.63 146.38 335.63 146.4 334.72 145.27 334.72 145.24 335.63"/>
    <polygon class="cls-2" points="185.19 334.43 183.88 334.43 183.29 336.28 184.08 336.28 185.19 334.43"/>
    <polygon class="cls-2" points="201.32 335.63 202.46 335.63 202.48 334.72 201.35 334.72 201.32 335.63"/>
    <polygon class="cls-2" points="243.02 335.63 244.15 335.63 244.17 334.72 243.04 334.72 243.02 335.63"/>
    <polygon class="cls-2" points="272.27 335.63 273.41 335.63 273.43 334.72 272.3 334.72 272.27 335.63"/>
    <polygon class="cls-2" points="328.56 335.63 329.69 335.63 329.71 334.72 328.58 334.72 328.56 335.63"/>
    <polygon class="cls-2" points="417.87 335.63 419 335.63 419.02 334.72 417.89 334.72 417.87 335.63"/>
    <polygon class="cls-2" points="424.39 334.43 423.08 334.43 422.49 336.28 423.29 336.28 424.39 334.43"/>
    <path class="cls-2" d="M72.61,334.72h-6.12l-.04,.93c.42-.03,.84-.07,1.26-.07h1.26c-.08,2.66-.16,5.32-.34,7.97h1.17c0-2.65,.14-5.29,.25-7.97h1.02c.29,0,.97,.01,1.48,.07l.04-.93Z"/>
    <path class="cls-2" d="M75.08,336.85c-2,0-3.17,1.43-3.17,3.59,0,2,1.17,3.26,2.97,3.26,2.35,0,3.14-1.92,3.14-3.63,0-2-1.13-3.22-2.95-3.22Zm-.17,6.02c-1.36,0-1.97-1.05-1.97-2.4,0-1.59,.66-2.81,2.06-2.81s2.01,.93,2.01,2.38-.57,2.82-2.1,2.82Z"/>
    <path class="cls-2" d="M83.91,336.98c-.43-.09-.87-.13-1.31-.13-2.49,0-3.62,1.8-3.62,3.81s1.11,3.03,2.53,3.03c1.06,0,1.79-.5,2.26-1.5l.02,.03-.07,1.32h1c.02-2.94,.13-5.89,.29-8.83h-1.06c0,.89,0,1.48-.04,2.26Zm-.22,3.95c-.19,1.06-.83,1.95-1.89,1.95-1.2,0-1.81-.98-1.81-2.26s.69-2.94,2.57-2.94c.59,0,.95,.07,1.3,.19-.05,.98,.01,2.05-.17,3.07Z"/>
    <path class="cls-2" d="M89.37,336.85c-2,0-3.17,1.43-3.17,3.59,0,2,1.17,3.26,2.97,3.26,2.35,0,3.14-1.92,3.14-3.63,0-2-1.13-3.22-2.95-3.22Zm-.17,6.02c-1.36,0-1.97-1.05-1.97-2.4,0-1.59,.66-2.81,2.06-2.81s2.01,.93,2.01,2.38-.57,2.82-2.09,2.82Z"/>
    <path class="cls-2" d="M99.77,336.85c-1.94,0-2.97,1.55-2.97,3.57,0,1.62,.63,3.27,3.09,3.27,.61,0,1.22-.09,1.82-.26l.17-.97c-.58,.21-1.23,.41-1.83,.41-1.36,0-2.23-.85-2.23-2.37v-.37h4.5c.02-.24,.04-.42,.04-.6,0-1.8-1.01-2.69-2.59-2.69Zm-1.88,2.59c.18-1.15,.88-1.91,1.98-1.91s1.53,.82,1.53,1.91h-3.5Z"/>
    <path class="cls-2" d="M106.99,336.85c-1.06,0-1.9,.34-2.38,1.39l-.02,.03,.07-1.27h-1.04c-.02,2.18-.16,4.37-.3,6.55h1.07c.01-.66,.01-2.89,.24-4.05,.22-1.09,.96-1.76,1.98-1.76s1.61,.44,1.61,1.56-.14,3.47-.19,4.25h1.05c.01-1.09,.17-4.18,.17-4.65,0-1.54-.99-2.05-2.25-2.05Z"/>
    <path class="cls-2" d="M121.35,334.72c-.65,1.95-2.08,5.31-2.84,7.43h-.02c-.99-3.52-1.85-6.01-2.19-7.43h-1.53c-.18,2.87-.37,6.04-.66,8.83h1.01c.08-2.7,.25-5.12,.46-7.62h.02l2.26,7.62h1.11l2.9-7.68h.02c0,2.91-.08,5.37-.14,7.68h1.06c-.01-.65-.02-1.28-.02-1.93,0-2.3,.05-4.59,.12-6.9h-1.55Z"/>
    <path class="cls-2" d="M126.97,336.85c-.76,0-1.49,.13-2.23,.34l-.11,.86c.7-.33,1.45-.52,2.2-.52,.57,0,1.38,.15,1.38,.94,0,1.79-4.37,.73-4.37,3.48,0,1.54,1.3,1.73,2.18,1.73,.4,0,.79-.05,1.18-.13l.19-.79c-.4,.15-.82,.24-1.24,.24-.61,0-1.35-.24-1.35-1.06,0-1.56,2.64-1.38,3.41-2.24-.06,1.3-.1,2.82-.22,3.84h1.06c0-1.46,.18-4.02,.18-5,0-.85-.29-1.69-2.27-1.69Z"/>
    <path class="cls-2" d="M132.1,335.57l-.95,.23-.06,1.2h-.81l-.02,.82h.78c-.05,1.43-.19,3.56-.19,4.3,0,1.15,.47,1.58,1.47,1.58,.37,0,.75-.07,1.11-.16l.13-.89c-.28,.08-.57,.16-.95,.16-.65,0-.73-.5-.73-1.13,0-.83,.1-2.58,.14-3.87h1.64l.02-.82h-1.63l.05-1.43Z"/>
    <path class="cls-2" d="M137.24,336.85c-1.94,0-2.97,1.55-2.97,3.57,0,1.62,.63,3.27,3.09,3.27,.61,0,1.22-.09,1.82-.26l.17-.97c-.58,.21-1.23,.41-1.83,.41-1.36,0-2.23-.85-2.23-2.37v-.37h4.5c.02-.24,.04-.42,.04-.6,0-1.8-1.01-2.69-2.59-2.69Zm-1.88,2.59c.18-1.15,.88-1.91,1.97-1.91s1.53,.82,1.53,1.91h-3.5Z"/>
    <path class="cls-2" d="M143.78,336.85c-.88,0-1.41,.38-1.79,1.19h-.02l.04-1.05h-1c.01,2.75-.11,4.66-.2,6.55h1.06c0-1.62,0-3.1,.12-3.95,.13-.98,.65-1.83,1.64-1.83,.23,0,.46,.04,.67,.11l-.04-.97c-.14-.04-.3-.07-.47-.07Z"/>
    <path class="cls-2" d="M144.98,343.55h1.11c.01-2.18,.08-4.37,.23-6.55h-1.07c-.02,2.18-.11,4.37-.26,6.55Z"/>
    <path class="cls-2" d="M150.46,336.85c-.76,0-1.49,.13-2.23,.34l-.11,.86c.7-.33,1.45-.52,2.2-.52,.57,0,1.39,.15,1.39,.94,0,1.79-4.37,.73-4.37,3.48,0,1.54,1.3,1.73,2.18,1.73,.4,0,.79-.05,1.18-.13l.19-.79c-.4,.15-.82,.24-1.24,.24-.61,0-1.35-.24-1.35-1.06,0-1.56,2.64-1.38,3.41-2.24-.06,1.3-.1,2.82-.22,3.84h1.06c0-1.46,.18-4.02,.18-5,0-.85-.29-1.69-2.28-1.69Z"/>
    <path class="cls-2" d="M154.08,343.55h1.08c.07-2.94,.16-5.96,.35-8.83h-1.07c-.06,2.95-.18,5.89-.36,8.83Z"/>
    <path class="cls-2" d="M159.63,336.85c-1.94,0-2.97,1.55-2.97,3.57,0,1.62,.63,3.27,3.09,3.27,.61,0,1.22-.09,1.82-.26l.17-.97c-.58,.21-1.23,.41-1.83,.41-1.36,0-2.23-.85-2.23-2.37v-.37h4.5c.02-.24,.04-.42,.04-.6,0-1.8-1.01-2.69-2.59-2.69Zm-1.88,2.59c.18-1.15,.88-1.91,1.97-1.91s1.53,.82,1.53,1.91h-3.5Z"/>
    <path class="cls-2" d="M165.39,337.67c.54,0,.97,.12,1.38,.28l-.05-.93c-.48-.09-.96-.17-1.44-.17-1.38,0-2.04,.69-2.04,1.64,0,1.56,2.47,2.32,2.47,3.53,0,.69-.7,.85-1.2,.85-.59,0-1.16-.19-1.69-.42l.08,.98c.57,.16,1.16,.26,1.75,.26,.94,0,2.08-.44,2.08-1.67,0-1.64-2.47-2.4-2.47-3.6,0-.62,.61-.75,1.12-.75Z"/>
    <path class="cls-2" d="M171.59,343.55h5.2l.05-.94c-.94,.07-1.88,.08-2.83,.08h-1.26l.12-3.19h3.66l.05-.86h-3.67l.11-3.06h1.79c.76,0,1.52,0,2.28,.05l.05-.91h-5.2c-.04,2.95-.14,5.89-.34,8.83Z"/>
    <path class="cls-2" d="M178.27,343.55h1.08c.07-2.94,.16-5.96,.35-8.83h-1.07c-.06,2.95-.18,5.89-.36,8.83Z"/>
    <path class="cls-2" d="M183.82,336.85c-1.94,0-2.97,1.55-2.97,3.57,0,1.62,.63,3.27,3.09,3.27,.61,0,1.22-.09,1.82-.26l.17-.97c-.58,.21-1.23,.41-1.83,.41-1.36,0-2.23-.85-2.23-2.37v-.37h4.5c.02-.24,.04-.42,.04-.6,0-1.8-1.01-2.69-2.59-2.69Zm-1.88,2.59c.18-1.15,.88-1.91,1.97-1.91s1.53,.82,1.53,1.91h-3.5Z"/>
    <path class="cls-2" d="M190.27,337.67c.67,0,1.19,.15,1.7,.33l-.06-.9c-.53-.17-1.08-.25-1.64-.25-2.14,0-3.06,1.59-3.06,3.63s1.02,3.22,2.89,3.22c.52,0,1.02-.07,1.53-.19l.14-.93c-.46,.16-.94,.29-1.41,.29-1.4,0-2.13-.89-2.13-2.41s.66-2.79,2.03-2.79Z"/>
    <path class="cls-2" d="M194.55,335.57l-.95,.23-.06,1.2h-.81l-.02,.82h.78c-.05,1.43-.19,3.56-.19,4.3,0,1.15,.47,1.58,1.47,1.58,.37,0,.75-.07,1.11-.16l.13-.89c-.28,.08-.57,.16-.95,.16-.65,0-.74-.5-.74-1.13,0-.83,.1-2.58,.15-3.87h1.64l.02-.82h-1.63l.05-1.43Z"/>
    <path class="cls-2" d="M199.86,336.85c-.88,0-1.41,.38-1.79,1.19h-.02l.04-1.05h-1c.01,2.75-.11,4.66-.2,6.55h1.06c0-1.62,0-3.1,.12-3.95,.13-.98,.65-1.83,1.64-1.83,.23,0,.46,.04,.67,.11l-.04-.97c-.14-.04-.3-.07-.47-.07Z"/>
    <path class="cls-2" d="M201.06,343.55h1.11c.01-2.18,.08-4.37,.23-6.55h-1.07c-.02,2.18-.11,4.37-.27,6.55Z"/>
    <path class="cls-2" d="M206.69,337.67c.67,0,1.19,.15,1.7,.33l-.06-.9c-.53-.17-1.08-.25-1.64-.25-2.14,0-3.06,1.59-3.06,3.63s1.02,3.22,2.89,3.22c.52,0,1.02-.07,1.53-.19l.14-.93c-.46,.16-.94,.29-1.41,.29-1.4,0-2.13-.89-2.13-2.41s.66-2.79,2.03-2.79Z"/>
    <path class="cls-2" d="M212.47,336.85c-2,0-3.17,1.43-3.17,3.59,0,2,1.17,3.26,2.97,3.26,2.35,0,3.14-1.92,3.14-3.63,0-2-1.13-3.22-2.95-3.22Zm-.17,6.02c-1.36,0-1.97-1.05-1.97-2.4,0-1.59,.66-2.81,2.06-2.81s2.01,.93,2.01,2.38-.57,2.82-2.1,2.82Z"/>
    <path class="cls-2" d="M218.73,337.67c.54,0,.97,.12,1.38,.28l-.05-.93c-.48-.09-.96-.17-1.44-.17-1.39,0-2.04,.69-2.04,1.64,0,1.56,2.47,2.32,2.47,3.53,0,.69-.7,.85-1.2,.85-.59,0-1.16-.19-1.68-.42l.08,.98c.57,.16,1.16,.26,1.75,.26,.94,0,2.08-.44,2.08-1.67,0-1.64-2.47-2.4-2.47-3.6,0-.62,.61-.75,1.12-.75Z"/>
    <path class="cls-2" d="M230.62,336.85c0-1.62-1.13-2.13-2.29-2.13h-3.07c-.01,3.53-.15,6.13-.33,8.83h1.16c.02-2.66,.11-5.32,.22-7.97h1.73c.65,0,1.47,.17,1.47,1.39,0,1.28-.99,1.85-2.03,1.85-.26,0-.53-.04-.78-.09,.85,1.6,1.81,3.15,2.55,4.82h1.25l-2.42-4.17c1.64-.05,2.54-1.18,2.54-2.53Z"/>
    <path class="cls-2" d="M234.41,336.85c-1.94,0-2.97,1.55-2.97,3.57,0,1.62,.63,3.27,3.09,3.27,.61,0,1.22-.09,1.82-.26l.17-.97c-.58,.21-1.23,.41-1.83,.41-1.36,0-2.23-.85-2.23-2.37v-.37h4.5c.02-.24,.04-.42,.04-.6,0-1.8-1.01-2.69-2.59-2.69Zm-1.88,2.59c.18-1.15,.88-1.91,1.97-1.91s1.53,.82,1.53,1.91h-3.5Z"/>
    <path class="cls-2" d="M240.16,337.67c.54,0,.97,.12,1.38,.28l-.05-.93c-.48-.09-.96-.17-1.44-.17-1.38,0-2.03,.69-2.03,1.64,0,1.56,2.47,2.32,2.47,3.53,0,.69-.7,.85-1.2,.85-.59,0-1.16-.19-1.69-.42l.08,.98c.57,.16,1.16,.26,1.75,.26,.94,0,2.08-.44,2.08-1.67,0-1.64-2.47-2.4-2.47-3.6,0-.62,.61-.75,1.12-.75Z"/>
    <path class="cls-2" d="M242.75,343.55h1.11c.01-2.18,.08-4.37,.23-6.55h-1.07c-.02,2.18-.11,4.37-.26,6.55Z"/>
    <path class="cls-2" d="M250.27,336.98c-.43-.09-.87-.13-1.31-.13-2.49,0-3.62,1.8-3.62,3.81s1.11,3.03,2.53,3.03c1.06,0,1.8-.5,2.26-1.5l.02,.03-.07,1.32h1c.02-2.94,.13-5.89,.29-8.83h-1.06c0,.89,0,1.48-.03,2.26Zm-.22,3.95c-.19,1.06-.83,1.95-1.89,1.95-1.2,0-1.81-.98-1.81-2.26s.69-2.94,2.57-2.94c.59,0,.95,.07,1.3,.19-.05,.98,.01,2.05-.17,3.07Z"/>
    <path class="cls-2" d="M255.53,336.85c-1.94,0-2.97,1.55-2.97,3.57,0,1.62,.63,3.27,3.09,3.27,.61,0,1.22-.09,1.82-.26l.17-.97c-.58,.21-1.23,.41-1.83,.41-1.36,0-2.23-.85-2.23-2.37v-.37h4.5c.02-.24,.04-.42,.04-.6,0-1.8-1.01-2.69-2.59-2.69Zm-1.88,2.59c.18-1.15,.88-1.91,1.98-1.91s1.53,.82,1.53,1.91h-3.5Z"/>
    <path class="cls-2" d="M262.75,336.85c-1.06,0-1.9,.34-2.38,1.39l-.02,.03,.07-1.27h-1.04c-.02,2.18-.16,4.37-.3,6.55h1.07c.01-.66,.01-2.89,.24-4.05,.22-1.09,.96-1.76,1.97-1.76s1.61,.44,1.61,1.56-.14,3.47-.19,4.25h1.05c.01-1.09,.17-4.18,.17-4.65,0-1.54-.99-2.05-2.25-2.05Z"/>
    <path class="cls-2" d="M269.24,337.67c.67,0,1.19,.15,1.7,.33l-.06-.9c-.53-.17-1.08-.25-1.64-.25-2.14,0-3.06,1.59-3.06,3.63s1.02,3.22,2.89,3.22c.52,0,1.02-.07,1.53-.19l.15-.93c-.46,.16-.94,.29-1.41,.29-1.4,0-2.13-.89-2.13-2.41s.66-2.79,2.04-2.79Z"/>
    <path class="cls-2" d="M272.01,343.55h1.11c.01-2.18,.08-4.37,.23-6.55h-1.07c-.02,2.18-.11,4.37-.26,6.55Z"/>
    <path class="cls-2" d="M277.49,336.85c-.76,0-1.49,.13-2.23,.34l-.11,.86c.7-.33,1.45-.52,2.2-.52,.57,0,1.39,.15,1.39,.94,0,1.79-4.37,.73-4.37,3.48,0,1.54,1.3,1.73,2.18,1.73,.4,0,.79-.05,1.18-.13l.19-.79c-.4,.15-.82,.24-1.24,.24-.61,0-1.35-.24-1.35-1.06,0-1.56,2.64-1.38,3.41-2.24-.06,1.3-.1,2.82-.22,3.84h1.06c0-1.46,.18-4.02,.18-5,0-.85-.29-1.69-2.27-1.69Z"/>
    <path class="cls-2" d="M281.11,343.55h1.08c.07-2.94,.16-5.96,.35-8.83h-1.07c-.06,2.95-.18,5.89-.36,8.83Z"/>
    <polygon class="cls-2" points="283.41 344.97 284.13 344.97 285.42 342.57 284.15 342.57 283.41 344.97"/>
    <path class="cls-2" d="M290.98,343.55h1.18c.06-2.94,.11-5.89,.29-8.83h-1.17c0,3.24-.16,6.05-.3,8.83Z"/>
    <path class="cls-2" d="M297.51,336.85c-1.06,0-1.9,.34-2.39,1.39l-.02,.03,.07-1.27h-1.03c-.02,2.18-.16,4.37-.3,6.55h1.07c.01-.66,.01-2.89,.24-4.05,.22-1.09,.96-1.76,1.98-1.76s1.61,.44,1.61,1.56-.15,3.47-.19,4.25h1.05c.01-1.09,.17-4.18,.17-4.65,0-1.54-.99-2.05-2.25-2.05Z"/>
    <path class="cls-2" d="M305.88,336.98c-.43-.09-.87-.13-1.31-.13-2.49,0-3.62,1.8-3.62,3.81s1.11,3.03,2.53,3.03c1.06,0,1.79-.5,2.26-1.5l.02,.03-.07,1.32h1c.02-2.94,.13-5.89,.29-8.83h-1.06c0,.89,0,1.48-.04,2.26Zm-.22,3.95c-.19,1.06-.83,1.95-1.89,1.95-1.2,0-1.81-.98-1.81-2.26s.69-2.94,2.56-2.94c.59,0,.95,.07,1.3,.19-.05,.98,.01,2.05-.17,3.07Z"/>
    <path class="cls-2" d="M312.94,340.7c-.16,1.26-.78,2.1-2.08,2.1-.88,0-1.52-.46-1.52-1.58,0-1.43,.15-2.83,.21-4.24h-1.05c0,1.51-.18,3.61-.18,4.57,0,1.56,.96,2.13,2.26,2.13,.95,0,1.87-.33,2.3-1.34l.02-.03-.04,1.22h.99c.01-2.18,.14-4.37,.28-6.55h-1.04c-.02,1.13-.04,2.71-.16,3.71Z"/>
    <path class="cls-2" d="M317.69,337.67c.54,0,.98,.12,1.38,.28l-.05-.93c-.48-.09-.96-.17-1.45-.17-1.38,0-2.03,.69-2.03,1.64,0,1.56,2.47,2.32,2.47,3.53,0,.69-.7,.85-1.2,.85-.59,0-1.16-.19-1.69-.42l.08,.98c.57,.16,1.16,.26,1.75,.26,.94,0,2.08-.44,2.08-1.67,0-1.64-2.47-2.4-2.47-3.6,0-.62,.61-.75,1.12-.75Z"/>
    <path class="cls-2" d="M321.78,335.57l-.95,.23-.06,1.2h-.81l-.02,.82h.78c-.05,1.43-.19,3.56-.19,4.3,0,1.15,.47,1.58,1.47,1.58,.37,0,.75-.07,1.11-.16l.13-.89c-.28,.08-.57,.16-.95,.16-.65,0-.74-.5-.74-1.13,0-.83,.1-2.58,.14-3.87h1.64l.02-.82h-1.63l.05-1.43Z"/>
    <path class="cls-2" d="M327.09,336.85c-.88,0-1.41,.38-1.79,1.19h-.02l.04-1.05h-1c.01,2.75-.11,4.66-.2,6.55h1.06c0-1.62,0-3.1,.12-3.95,.13-.98,.65-1.83,1.64-1.83,.23,0,.46,.04,.67,.11l-.04-.97c-.14-.04-.3-.07-.47-.07Z"/>
    <path class="cls-2" d="M328.29,343.55h1.11c.01-2.18,.08-4.37,.23-6.55h-1.07c-.02,2.18-.11,4.37-.26,6.55Z"/>
    <path class="cls-2" d="M333.77,336.85c-.76,0-1.49,.13-2.23,.34l-.11,.86c.7-.33,1.45-.52,2.2-.52,.57,0,1.39,.15,1.39,.94,0,1.79-4.37,.73-4.37,3.48,0,1.54,1.3,1.73,2.18,1.73,.4,0,.79-.05,1.18-.13l.19-.79c-.4,.15-.82,.24-1.24,.24-.61,0-1.35-.24-1.35-1.06,0-1.56,2.64-1.38,3.41-2.24-.06,1.3-.1,2.82-.22,3.84h1.06c0-1.46,.18-4.02,.18-5,0-.85-.29-1.69-2.27-1.69Z"/>
    <path class="cls-2" d="M337.4,343.55h1.08c.07-2.94,.16-5.96,.35-8.83h-1.07c-.06,2.95-.18,5.89-.36,8.83Z"/>
    <path class="cls-2" d="M345.83,342.65h-.02c-.46-1.87-1.16-3.72-1.6-5.65h-1.11l2.17,6.72c-.73,1.99-1.2,2.14-1.79,2.14-.26,0-.6-.11-.9-.26l.1,.94c.33,.09,.67,.15,1.01,.15,1.35,0,1.76-.9,2.17-1.89l3.2-7.8h-1.07l-2.14,5.65Z"/>
    <path class="cls-2" d="M357.86,336.98c-.43-.09-.87-.13-1.31-.13-2.49,0-3.62,1.8-3.62,3.81s1.11,3.03,2.53,3.03c1.06,0,1.79-.5,2.26-1.5l.02,.03-.07,1.32h1c.02-2.94,.13-5.89,.29-8.83h-1.06c0,.89,0,1.48-.04,2.26Zm-.22,3.95c-.19,1.06-.83,1.95-1.89,1.95-1.2,0-1.81-.98-1.81-2.26s.69-2.94,2.56-2.94c.59,0,.95,.07,1.3,.19-.05,.98,.01,2.05-.17,3.07Z"/>
    <path class="cls-2" d="M363.12,336.85c-1.94,0-2.97,1.55-2.97,3.57,0,1.62,.63,3.27,3.09,3.27,.61,0,1.22-.09,1.82-.26l.17-.97c-.58,.21-1.23,.41-1.83,.41-1.36,0-2.23-.85-2.23-2.37v-.37h4.5c.02-.24,.04-.42,.04-.6,0-1.8-1.01-2.69-2.59-2.69Zm-1.88,2.59c.18-1.15,.88-1.91,1.97-1.91s1.53,.82,1.53,1.91h-3.5Z"/>
    <path class="cls-2" d="M372.96,334.72c-1.32,2.95-2.71,5.9-4.12,8.83h1.23l1.63-3.72h3.18c.42,1.23,.83,2.46,1.17,3.72h1.19c-.99-2.95-2-5.89-2.9-8.83h-1.37Zm-.94,4.25l1.55-3.38,1.08,3.38h-2.64Z"/>
    <path class="cls-2" d="M377.66,343.55h1.08c.07-2.94,.16-5.96,.35-8.83h-1.07c-.06,2.95-.18,5.89-.36,8.83Z"/>
    <path class="cls-2" d="M381.89,335.57l-.95,.23-.06,1.2h-.81l-.02,.82h.78c-.05,1.43-.19,3.56-.19,4.3,0,1.15,.47,1.58,1.47,1.58,.37,0,.75-.07,1.11-.16l.13-.89c-.28,.08-.57,.16-.95,.16-.65,0-.74-.5-.74-1.13,0-.83,.1-2.58,.15-3.87h1.64l.02-.82h-1.63l.05-1.43Z"/>
    <path class="cls-2" d="M386.96,336.85c-.76,0-1.49,.13-2.23,.34l-.11,.86c.7-.33,1.45-.52,2.2-.52,.57,0,1.39,.15,1.39,.94,0,1.79-4.37,.73-4.37,3.48,0,1.54,1.3,1.73,2.18,1.73,.4,0,.79-.05,1.18-.13l.19-.79c-.4,.15-.82,.24-1.24,.24-.61,0-1.35-.24-1.35-1.06,0-1.56,2.64-1.38,3.41-2.24-.06,1.3-.1,2.82-.22,3.84h1.06c0-1.46,.18-4.02,.18-5,0-.85-.29-1.69-2.27-1.69Z"/>
    <path class="cls-2" d="M399.72,334.72h-6.12l-.04,.93c.42-.03,.84-.07,1.26-.07h1.26c-.08,2.66-.16,5.32-.34,7.97h1.17c0-2.65,.14-5.29,.25-7.97h1.02c.29,0,.98,.01,1.48,.07l.04-.93Z"/>
    <path class="cls-2" d="M402,336.85c-1.94,0-2.97,1.55-2.97,3.57,0,1.62,.63,3.27,3.09,3.27,.61,0,1.22-.09,1.82-.26l.17-.97c-.58,.21-1.23,.41-1.83,.41-1.36,0-2.23-.85-2.23-2.37v-.37h4.5c.02-.24,.04-.42,.04-.6,0-1.8-1.01-2.69-2.59-2.69Zm-1.88,2.59c.18-1.15,.88-1.91,1.97-1.91s1.53,.82,1.53,1.91h-3.5Z"/>
    <path class="cls-2" d="M409.22,336.85c-1.06,0-1.9,.34-2.39,1.39l-.02,.03,.07-1.27h-1.03c-.02,2.18-.16,4.37-.3,6.55h1.07c.01-.66,.01-2.89,.24-4.05,.22-1.09,.96-1.76,1.98-1.76s1.61,.44,1.61,1.56-.15,3.47-.19,4.25h1.05c.01-1.09,.17-4.18,.17-4.65,0-1.54-.99-2.05-2.25-2.05Z"/>
    <path class="cls-2" d="M415.01,337.67c.54,0,.98,.12,1.39,.28l-.05-.93c-.48-.09-.96-.17-1.44-.17-1.39,0-2.04,.69-2.04,1.64,0,1.56,2.47,2.32,2.47,3.53,0,.69-.7,.85-1.2,.85-.59,0-1.16-.19-1.68-.42l.08,.98c.57,.16,1.16,.26,1.75,.26,.94,0,2.08-.44,2.08-1.67,0-1.64-2.47-2.4-2.47-3.6,0-.62,.61-.75,1.12-.75Z"/>
    <path class="cls-2" d="M417.6,343.55h1.11c.01-2.18,.08-4.37,.23-6.55h-1.07c-.02,2.18-.11,4.37-.26,6.55Z"/>
    <path class="cls-2" d="M423.35,336.85c-2,0-3.17,1.43-3.17,3.59,0,2,1.17,3.26,2.97,3.26,2.35,0,3.14-1.92,3.14-3.63,0-2-1.13-3.22-2.95-3.22Zm-.17,6.02c-1.36,0-1.97-1.05-1.97-2.4,0-1.59,.66-2.81,2.06-2.81s2.01,.93,2.01,2.38-.57,2.82-2.1,2.82Z"/>
    <path class="cls-2" d="M431.08,336.85c-1.06,0-1.9,.34-2.39,1.39l-.02,.03,.07-1.27h-1.03c-.02,2.18-.16,4.37-.3,6.55h1.07c.01-.66,.01-2.89,.24-4.05,.22-1.09,.96-1.76,1.98-1.76s1.61,.44,1.61,1.56-.15,3.47-.19,4.25h1.05c.01-1.09,.17-4.18,.17-4.65,0-1.54-.99-2.05-2.25-2.05Z"/>
  </g>
  <path class="cls-2" d="M99.84,309.47c2.49,0,5.25-.1,8.08-.26,10.92-.62,22.71-2.12,22.71-2.12,0,0-4.04,.1-9.77,.1-4.15,0-9.19-.05-14.22-.24-.67-.02-1.34-.05-2.01-.08-.38-.02-.76-.03-1.13-.05-3.38-.17-6.67-.4-9.6-.72-4.53-.5-8.2-1.23-9.97-2.26-7.27-4.26,5.26-7.6,5.26-7.6,0,0-23.47,2.16-23.48,7.27,0,4.26,18.26,5.43,30.14,5.88,.46,.02,.92,.03,1.36,.05,.83,.03,1.71,.04,2.63,.04Z"/>
  <path class="cls-2" d="M155.8,283.9s26.28-2.24,26.28-7.52c0-4.38-20.14-5.6-33.44-6.07-.62-.02-1.23-.04-1.82-.06-.16,0-.34,0-.5-.01-.78-.02-1.59-.03-2.43-.03-10.25,0-24.72,1.41-31.16,2.1-2.07,.22-3.32,.37-3.32,.37,0,0,1.11-.03,3-.05,1.94-.03,4.69-.05,7.94-.05,8.6,0,20.59,.19,29.67,1.08,.01,0,.03,0,.04,0,.46,.05,.91,.09,1.35,.14,.06,0,.12,.01,.18,.02,4.59,.52,8.27,1.23,10.11,2.23,8.14,4.41-5.89,7.87-5.89,7.87Z"/>
  <g>
    <path class="cls-3" d="M159.81,313.44h-3.74l-2.63-10.38c-.47-1.92-1.14-4.11-1.5-5.66h-.06c-.42,5.26-.75,10.65-.91,16.04h-3.54c.72-6.24,1.47-18.96,1.58-20.3h5.46c.3,2.07,.94,4.05,1.52,6.03,.89,2.95,1.58,5.96,2.27,8.79h.06c.94-2.83,1.94-5.84,3.07-8.76,.78-1.98,1.55-3.96,2.1-6.06h5.57c-.22,5.78-.39,11.17-.39,20.3h-3.68c.17-4.78,.39-9.59,.39-14.39v-1.64h-.06l-5.51,16.04Z"/>
    <path class="cls-3" d="M182.07,311.07h-.06c-1.05,2.07-2.91,2.74-5.07,2.74-2.8,0-5.07-1.25-5.07-4.66,0-2.53,.42-5.6,.44-10.83h3.93c-.11,1.25-.53,7.18-.53,8.89,0,2.07,.91,3.2,2.82,3.2,2.05,0,3.18-1.46,3.54-3.56,.33-2.01,.42-7,.44-8.52h3.88c-.36,5.05-.64,10.07-.69,15.13h-3.66v-2.37Z"/>
    <path class="cls-3" d="M193.81,300.78h.06c1.16-2.1,3.05-2.83,5.29-2.83,2.94,0,5.15,1.25,5.15,4.81,0,1.86-.39,6.12-.39,10.68h-4.1c.36-2.92,.64-5.9,.64-8.83,0-2.19-.91-3.26-2.94-3.26-2.19,0-3.38,1.76-3.77,3.96-.42,2.43-.44,6.76-.47,8.13h-3.96c.39-4.6,.66-9.22,.75-15.13h3.88l-.14,2.47Z"/>
    <path class="cls-3" d="M217.65,311.04h-.06c-1.25,1.83-2.74,2.77-4.98,2.77-3.63,0-5.84-3.04-5.84-6.88,0-5.11,2.91-8.98,8.42-8.98,.91,0,1.83,.12,2.74,.27,.08-1.37,.11-2.43,.11-5.08h3.93c-.31,3.56-.83,14.21-.83,20.3h-3.63l.14-2.4Zm-1.77-10.1c-3.54,0-5.26,2.5-5.26,5.75,0,2.31,1.08,4.14,3.32,4.14,2.08,0,3.18-1.98,3.52-3.99,.28-1.77,.3-3.77,.33-5.57-.64-.21-1.27-.33-1.91-.33Z"/>
    <path class="cls-3" d="M239.56,305.62c0,2.95-1.44,8.19-7.81,8.19-5.59,0-7.39-4.26-7.39-7.55,0-5.17,3.21-8.31,7.84-8.31,4.35,0,7.37,2.74,7.37,7.67Zm-11.35,.73c0,2.43,1.22,4.47,3.6,4.47,2.77,0,3.9-2.59,3.9-5.29,0-2.53-1.03-4.6-3.54-4.6-2.88,0-3.96,2.59-3.96,5.42Z"/>
    <path class="cls-3" d="M265.11,293.15l-.14,3.35c-1.58-.09-3.16-.12-4.74-.12h-4.51l-.22,5.3h4.43c1.05,0,2.16-.09,3.68-.12l-.17,3.1h-8.11l-.22,5.57h5.43c.72,0,1.55,0,3.9-.18l-.17,3.41h-13.51c.53-4.14,.86-16.19,.86-20.3h13.49Z"/>
    <path class="cls-3" d="M267.66,313.44c.39-6.24,.75-12.17,.89-20.3h3.99c-.47,6.76-.72,13.54-.91,20.3h-3.96Z"/>
    <path class="cls-3" d="M278.65,306.11v.49c0,2.83,1.74,4.41,4.24,4.41,1.58,0,3.1-.46,4.6-.97l-.5,3.2c-1.47,.36-2.96,.58-4.49,.58-7.12,0-7.7-5.3-7.7-7.4,0-2.77,.97-8.46,7.48-8.46,3.74,0,6.45,2.07,6.45,6.39,0,.64-.08,1.28-.17,1.76h-9.91Zm6.4-2.04c0-2.34-.75-3.59-2.85-3.59-1.94,0-3.19,1.61-3.43,3.59h6.29Zm-3.52-11.87h4.32l-2.66,3.9h-3.02l1.36-3.9Z"/>
    <path class="cls-3" d="M301.03,313.29c-1.25,.33-2.52,.52-3.82,.52-4.4,0-6.87-2.71-6.87-7.55,0-1.19,0-8.31,7.37-8.31,1.38,0,2.74,.18,4.04,.58l.22,3.29c-1.16-.43-2.35-.73-3.57-.73-2.82,0-4.21,2.1-4.21,5.05,0,2.8,1.3,4.53,3.93,4.53,1.16,0,2.33-.3,3.38-.7l-.47,3.32Z"/>
    <path class="cls-3" d="M309.3,301.3c-.06,1.31-.3,5.9-.3,6.97,0,1.28,.22,2.31,1.44,2.31,1.11,0,1.55-.18,2.22-.36l-.5,3.13c-1.03,.3-2.05,.46-3.1,.46-2.6,0-3.9-.94-3.9-3.93,0-1.55,.39-7.91,.44-8.58h-1.94l.11-2.98h2.05l.14-2.77,3.57-.85-.11,3.62h3.46l-.11,2.98h-3.46Z"/>
    <path class="cls-3" d="M318.72,300.36h.06c.86-1.49,1.99-2.4,3.71-2.4,.42,0,.8,.06,1.19,.15l.11,3.56c-.5-.18-.97-.3-1.5-.3-1.99,0-3.13,1.43-3.52,3.56-.3,1.64-.33,4.87-.33,6.63v1.89h-3.85c.25-4.29,.53-8.37,.53-15.13h3.68l-.08,2.04Z"/>
    <path class="cls-3" d="M330.02,298.32c-.36,4.5-.5,9.01-.53,15.13h-4.13c.44-5.02,.61-10.07,.64-15.13h4.02Zm-3.93-2.56l.06-2.86h3.99l-.11,2.86h-3.93Z"/>
    <path class="cls-3" d="M343.2,313.29c-1.25,.33-2.52,.52-3.82,.52-4.4,0-6.87-2.71-6.87-7.55,0-1.19,0-8.31,7.37-8.31,1.38,0,2.74,.18,4.04,.58l.22,3.29c-1.16-.43-2.35-.73-3.57-.73-2.83,0-4.21,2.1-4.21,5.05,0,2.8,1.3,4.53,3.93,4.53,1.16,0,2.33-.3,3.38-.7l-.47,3.32Z"/>
    <path class="cls-3" d="M361.25,305.62c0,2.95-1.44,8.19-7.81,8.19-5.59,0-7.39-4.26-7.39-7.55,0-5.17,3.21-8.31,7.84-8.31,4.35,0,7.37,2.74,7.37,7.67Zm-11.35,.73c0,2.43,1.22,4.47,3.6,4.47,2.77,0,3.9-2.59,3.9-5.29,0-2.53-1.02-4.6-3.54-4.6-2.88,0-3.96,2.59-3.96,5.42Z"/>
  </g>
</svg>